# Blender 4.2.1 LTS
# www.blender.org
mtllib EnemySaw.mtl
o EnemySaw
v -0.100000 1.016267 -0.370952
v -0.100000 1.078863 -0.164600
v -0.100000 1.100000 0.050000
v -0.100000 1.078864 0.264599
v -0.100000 1.016267 0.470951
v -0.100000 0.914616 0.661127
v -0.100000 0.777817 0.827817
v -0.100000 0.611127 0.964616
v -0.100000 0.420952 1.066267
v -0.100000 0.214599 1.128864
v -0.100000 0.000000 1.150000
v -0.100000 -0.214599 1.128864
v -0.100000 -0.420952 1.066267
v -0.100000 -0.611127 0.964617
v -0.100000 -0.777817 0.827818
v -0.100000 -0.914616 0.661128
v -0.100000 -1.016267 0.470952
v -0.100000 -1.078864 0.264600
v -0.100000 -1.100000 0.050000
v -0.100000 -1.078864 -0.164599
v -0.100000 -1.016268 -0.370951
v -0.100000 -0.914617 -0.561127
v -0.100000 -0.777818 -0.727817
v -0.100000 -0.611128 -0.864616
v -0.100000 -0.420952 -0.966267
v -0.100000 -0.214600 -1.028864
v -0.100000 -0.000001 -1.050000
v -0.100000 0.214599 -1.028864
v -0.100000 0.420951 -0.966268
v -0.100000 0.611127 -0.864617
v -0.100000 0.777817 -0.727818
v -0.100000 0.914616 -0.561127
v 0.100000 1.448889 0.438229
v 0.100000 1.180620 0.284840
v -0.100000 1.180620 0.284840
v -0.100000 1.448889 0.438229
v 0.100000 1.190030 0.963142
v -0.100000 1.190030 0.963142
v 0.100000 1.000882 0.718768
v -0.100000 1.000882 0.718768
v 0.100000 0.750000 1.349038
v -0.100000 0.750000 1.349038
v 0.100000 0.668768 1.050882
v -0.100000 0.668768 1.050882
v 0.100000 0.195789 1.537167
v -0.100000 0.195789 1.537167
v 0.100000 0.234840 1.230620
v -0.100000 0.234840 1.230620
v 0.100000 -0.388229 1.498889
v -0.100000 -0.388229 1.498889
v 0.100000 -0.234840 1.230620
v -0.100000 -0.234840 1.230620
v 0.100000 -0.913142 1.240030
v -0.100000 -0.913142 1.240030
v 0.100000 -0.668768 1.050882
v -0.100000 -0.668768 1.050882
v 0.100000 -1.299038 0.800000
v -0.100000 -1.299038 0.800000
v 0.100000 -1.000882 0.718768
v -0.100000 -1.000882 0.718768
v 0.100000 -1.487167 0.245789
v -0.100000 -1.487167 0.245789
v 0.100000 -1.180620 0.284840
v -0.100000 -1.180620 0.284840
v 0.100000 -1.448889 -0.338229
v -0.100000 -1.448889 -0.338229
v 0.100000 -1.180620 -0.184840
v -0.100000 -1.180620 -0.184840
v 0.100000 -1.190030 -0.863142
v -0.100000 -1.190030 -0.863142
v 0.100000 -1.000882 -0.618768
v -0.100000 -1.000882 -0.618768
v 0.100000 -0.750000 -1.249038
v -0.100000 -0.750000 -1.249038
v 0.100000 -0.668768 -0.950882
v -0.100000 -0.668768 -0.950882
v 0.100000 -0.195789 -1.437167
v -0.100000 -0.195789 -1.437167
v 0.100000 -0.234840 -1.130620
v -0.100000 -0.234840 -1.130620
v 0.100000 0.388229 -1.398889
v -0.100000 0.388229 -1.398889
v 0.100000 0.234840 -1.130620
v -0.100000 0.234840 -1.130620
v 0.100000 0.913142 -1.140030
v -0.100000 0.913142 -1.140030
v 0.100000 0.668768 -0.950882
v -0.100000 0.668768 -0.950882
v 0.100000 1.299038 -0.700000
v -0.100000 1.299038 -0.700000
v 0.100000 1.000882 -0.618768
v -0.100000 1.000882 -0.618768
v 0.100000 1.487167 -0.145789
v -0.100000 1.487167 -0.145789
v 0.100000 1.180620 -0.184840
v -0.100000 1.180620 -0.184840
v -0.150000 0.999032 0.050000
v 0.150000 0.999032 0.050000
v -0.150000 0.979836 0.244902
v 0.150000 0.979836 0.244901
v -0.150000 0.922986 0.432313
v 0.150000 0.922985 0.432313
v -0.150000 0.830665 0.605033
v 0.150000 0.830665 0.605033
v -0.150000 0.706423 0.756422
v 0.150000 0.706422 0.756422
v -0.150000 0.555033 0.880665
v 0.150000 0.555033 0.880665
v -0.150000 0.382313 0.972985
v 0.150000 0.382313 0.972985
v -0.150000 0.194902 1.029836
v 0.150000 0.194901 1.029836
v -0.150000 0.000000 1.049032
v 0.150000 -0.000000 1.049032
v -0.150000 -0.194901 1.029836
v 0.150000 -0.194902 1.029836
v -0.150000 -0.382313 0.972985
v 0.150000 -0.382313 0.972985
v -0.150000 -0.555033 0.880665
v 0.150000 -0.555033 0.880665
v -0.150000 -0.706422 0.756422
v 0.150000 -0.706423 0.756422
v -0.150000 -0.830665 0.605033
v 0.150000 -0.830665 0.605033
v -0.150000 -0.922985 0.432313
v 0.150000 -0.922986 0.432313
v -0.150000 -0.979836 0.244901
v 0.150000 -0.979836 0.244902
v -0.150000 -0.999032 0.050000
v 0.150000 -0.999032 0.050000
v -0.150000 -0.979836 -0.144901
v 0.150000 -0.979836 -0.144902
v -0.150000 -0.922985 -0.332313
v 0.150000 -0.922986 -0.332313
v -0.150000 -0.830665 -0.505033
v 0.150000 -0.830665 -0.505033
v -0.150000 -0.706422 -0.656422
v 0.150000 -0.706423 -0.656422
v -0.150000 -0.555033 -0.780665
v 0.150000 -0.555033 -0.780665
v -0.150000 -0.382313 -0.872985
v 0.150000 -0.382313 -0.872985
v -0.150000 -0.194901 -0.929836
v 0.150000 -0.194902 -0.929836
v -0.150000 0.000000 -0.949032
v 0.150000 -0.000000 -0.949032
v -0.150000 0.194902 -0.929836
v 0.150000 0.194901 -0.929836
v -0.150000 0.382313 -0.872985
v 0.150000 0.382313 -0.872985
v -0.150000 0.555033 -0.780665
v 0.150000 0.555033 -0.780665
v -0.150000 0.706423 -0.656422
v 0.150000 0.706422 -0.656422
v -0.150000 0.830665 -0.505033
v 0.150000 0.830665 -0.505033
v -0.150000 0.922986 -0.332313
v 0.150000 0.922985 -0.332313
v -0.150000 0.979836 -0.144902
v 0.150000 0.979836 -0.144901
v -0.150000 1.200000 0.050000
v -0.150000 1.176942 0.284108
v 0.150000 1.176942 0.284108
v 0.150000 1.200000 0.050000
v -0.150000 1.108656 0.509220
v 0.150000 1.108655 0.509220
v -0.150000 0.997764 0.716684
v 0.150000 0.997763 0.716684
v -0.150000 0.848528 0.898528
v 0.150000 0.848528 0.898528
v -0.150000 0.666684 1.047763
v 0.150000 0.666684 1.047763
v -0.150000 0.459220 1.158655
v 0.150000 0.459220 1.158655
v -0.150000 0.234109 1.226942
v 0.150000 0.234108 1.226942
v -0.150000 0.000000 1.250000
v 0.150000 0.000000 1.250000
v -0.150000 -0.234108 1.226942
v 0.150000 -0.234109 1.226942
v -0.150000 -0.459220 1.158655
v 0.150000 -0.459220 1.158655
v -0.150000 -0.666684 1.047763
v 0.150000 -0.666684 1.047763
v -0.150000 -0.848528 0.898528
v 0.150000 -0.848528 0.898528
v -0.150000 -0.997763 0.716684
v 0.150000 -0.997764 0.716684
v -0.150000 -1.108655 0.509220
v 0.150000 -1.108656 0.509220
v -0.150000 -1.176942 0.284108
v 0.150000 -1.176942 0.284108
v -0.150000 -1.200000 0.050000
v 0.150000 -1.200000 0.050000
v -0.150000 -1.176942 -0.184108
v 0.150000 -1.176942 -0.184108
v -0.150000 -1.108655 -0.409220
v 0.150000 -1.108656 -0.409220
v -0.150000 -0.997763 -0.616684
v 0.150000 -0.997764 -0.616684
v -0.150000 -0.848528 -0.798528
v 0.150000 -0.848528 -0.798528
v -0.150000 -0.666684 -0.947763
v 0.150000 -0.666684 -0.947763
v -0.150000 -0.459220 -1.058655
v 0.150000 -0.459220 -1.058655
v -0.150000 -0.234108 -1.126942
v 0.150000 -0.234109 -1.126942
v -0.150000 0.000000 -1.150000
v 0.150000 0.000000 -1.150000
v -0.150000 0.234109 -1.126942
v 0.150000 0.234108 -1.126942
v -0.150000 0.459220 -1.058655
v 0.150000 0.459220 -1.058655
v -0.150000 0.666684 -0.947763
v 0.150000 0.666684 -0.947763
v -0.150000 0.848528 -0.798528
v 0.150000 0.848528 -0.798528
v -0.150000 0.997764 -0.616684
v 0.150000 0.997763 -0.616684
v -0.150000 1.108656 -0.409220
v 0.150000 1.108655 -0.409220
v -0.150000 1.176942 -0.184108
v 0.150000 1.176942 -0.184108
v 0.000000 -1.097703 0.050000
v -0.000000 -0.950638 -0.498851
v -0.000000 -0.548851 -0.900638
v 0.000000 -0.000000 1.147703
v 0.000000 -0.548851 1.000638
v 0.000000 -0.950638 0.598851
v 0.000000 1.097703 0.050000
v -0.000000 0.000000 -1.047703
v -0.000000 0.950638 -0.498851
v -0.000000 0.548851 -0.900638
v 0.000000 0.950638 0.598851
v 0.000000 0.548851 1.000638
vn -0.0000 -0.4964 0.8681
vn -0.0000 0.9999 -0.0139
vn -0.0000 -0.7908 0.6121
vn -0.0000 0.9291 0.3698
vn -0.0000 -0.9648 0.2629
vn -0.0000 0.7168 0.6972
vn -0.0000 -0.9920 -0.1264
vn -0.0000 0.3955 0.9185
vn -0.0000 -0.8681 -0.4964
vn -0.0000 0.0139 0.9999
vn -0.0000 -0.6121 -0.7908
vn -0.0000 -0.3698 0.9291
vn -0.0000 -0.2629 -0.9648
vn -0.0000 -0.6972 0.7168
vn -0.0000 0.1264 -0.9920
vn -0.0000 -0.9185 0.3955
vn -0.0000 0.4964 -0.8681
vn -0.0000 -0.9999 0.0139
vn -0.0000 0.7908 -0.6121
vn -0.0000 -0.9291 -0.3698
vn -0.0000 0.9648 -0.2629
vn -0.0000 -0.7168 -0.6972
vn -0.0000 0.9920 0.1264
vn -0.0000 -0.3955 -0.9185
vn -0.0000 0.8681 0.4964
vn -0.0000 -0.0139 -0.9999
vn -0.0000 0.6121 0.7908
vn -0.0000 0.3698 -0.9291
vn -0.0000 0.2629 0.9648
vn -0.0000 0.6972 -0.7168
vn -0.0000 -0.1264 0.9920
vn -0.0000 0.9185 -0.3955
vn -1.0000 -0.0000 -0.0000
vn -0.0000 0.9808 0.1951
vn -0.0000 1.0000 -0.0000
vn -0.0000 0.9239 0.3827
vn -0.0000 0.8315 0.5556
vn -0.0000 0.7071 0.7071
vn -0.0000 0.5556 0.8315
vn -0.0000 0.3827 0.9239
vn -0.0000 0.1951 0.9808
vn -0.0000 -0.0000 1.0000
vn -0.0000 -0.1951 0.9808
vn -0.0000 -0.3827 0.9239
vn -0.0000 -0.5556 0.8315
vn -0.0000 -0.7071 0.7071
vn -0.0000 -0.8315 0.5556
vn -0.0000 -0.9239 0.3827
vn -0.0000 -0.9808 0.1951
vn -0.0000 -1.0000 -0.0000
vn -0.0000 -0.9808 -0.1951
vn -0.0000 -0.9239 -0.3827
vn -0.0000 -0.8315 -0.5556
vn -0.0000 -0.7071 -0.7071
vn -0.0000 -0.5556 -0.8315
vn -0.0000 -0.3827 -0.9239
vn -0.0000 -0.1951 -0.9808
vn -0.0000 -0.0000 -1.0000
vn -0.0000 0.1951 -0.9808
vn -0.0000 0.3827 -0.9239
vn -0.0000 0.5556 -0.8315
vn -0.0000 0.7071 -0.7071
vn -0.0000 0.8315 -0.5556
vn -0.0000 0.9239 -0.3827
vn -0.0000 0.9808 -0.1951
vt 0.046875 0.984375
vt 0.015625 0.984375
s 1
usemtl EnemyFace
f 36/1/1 34/1/1 33/1/1
f 35/1/2 37/1/2 34/1/2
f 38/1/3 39/1/3 37/1/3
f 40/1/4 41/1/4 39/1/4
f 42/1/5 43/1/5 41/1/5
f 44/1/6 45/1/6 43/1/6
f 45/1/7 48/1/7 47/1/7
f 48/1/8 49/1/8 47/1/8
f 50/1/9 51/1/9 49/1/9
f 52/1/10 53/1/10 51/1/10
f 53/1/11 56/1/11 55/1/11
f 56/1/12 57/1/12 55/1/12
f 57/1/13 60/1/13 59/1/13
f 60/1/14 61/1/14 59/1/14
f 61/1/15 64/1/15 63/1/15
f 64/1/16 65/1/16 63/1/16
f 65/1/17 68/1/17 67/1/17
f 68/1/18 69/1/18 67/1/18
f 69/1/19 72/1/19 71/1/19
f 72/1/20 73/1/20 71/1/20
f 73/1/21 76/1/21 75/1/21
f 75/1/22 78/1/22 77/1/22
f 78/1/23 79/1/23 77/1/23
f 79/1/24 82/1/24 81/1/24
f 81/1/25 84/1/25 83/1/25
f 83/1/26 86/1/26 85/1/26
f 86/1/27 87/1/27 85/1/27
f 87/1/28 90/1/28 89/1/28
f 90/1/29 91/1/29 89/1/29
f 91/1/30 94/1/30 93/1/30
f 94/1/31 95/1/31 93/1/31
f 96/1/32 33/1/32 95/1/32
f 2/1/33 36/1/33 1/1/33
f 3/1/33 35/1/33 2/1/33
f 4/1/33 38/1/33 3/1/33
f 5/1/33 40/1/33 4/1/33
f 6/1/33 42/1/33 5/1/33
f 7/1/33 44/1/33 6/1/33
f 8/1/33 46/1/33 7/1/33
f 9/1/33 48/1/33 8/1/33
f 10/1/33 50/1/33 9/1/33
f 11/1/33 52/1/33 10/1/33
f 12/1/33 54/1/33 11/1/33
f 13/1/33 56/1/33 12/1/33
f 14/1/33 58/1/33 13/1/33
f 15/1/33 60/1/33 14/1/33
f 16/1/33 62/1/33 15/1/33
f 17/1/33 64/1/33 16/1/33
f 18/1/33 66/1/33 17/1/33
f 19/1/33 68/1/33 18/1/33
f 20/1/33 70/1/33 19/1/33
f 21/1/33 72/1/33 20/1/33
f 22/1/33 74/1/33 21/1/33
f 23/1/33 76/1/33 22/1/33
f 24/1/33 78/1/33 23/1/33
f 25/1/33 80/1/33 24/1/33
f 26/1/33 82/1/33 25/1/33
f 27/1/33 84/1/33 26/1/33
f 28/1/33 86/1/33 27/1/33
f 29/1/33 88/1/33 28/1/33
f 30/1/33 90/1/33 29/1/33
f 31/1/33 92/1/33 30/1/33
f 32/1/33 94/1/33 31/1/33
f 1/1/33 96/1/33 32/1/33
f 162/2/34 164/2/35 161/2/35
f 165/2/36 163/2/34 162/2/34
f 167/2/37 166/2/36 165/2/36
f 169/2/38 168/2/37 167/2/37
f 171/2/39 170/2/38 169/2/38
f 173/2/40 172/2/39 171/2/39
f 175/2/41 174/2/40 173/2/40
f 177/2/42 176/2/41 175/2/41
f 179/2/43 178/2/42 177/2/42
f 181/2/44 180/2/43 179/2/43
f 183/2/45 182/2/44 181/2/44
f 185/2/46 184/2/45 183/2/45
f 187/2/47 186/2/46 185/2/46
f 189/2/48 188/2/47 187/2/47
f 191/2/49 190/2/48 189/2/48
f 193/2/50 192/2/49 191/2/49
f 195/2/51 194/2/50 193/2/50
f 195/2/51 198/2/52 196/2/51
f 199/2/53 198/2/52 197/2/52
f 199/2/53 202/2/54 200/2/53
f 201/2/54 204/2/55 202/2/54
f 203/2/55 206/2/56 204/2/55
f 205/2/56 208/2/57 206/2/56
f 209/2/58 208/2/57 207/2/57
f 211/2/59 210/2/58 209/2/58
f 211/2/59 214/2/60 212/2/59
f 213/2/60 216/2/61 214/2/60
f 215/2/61 218/2/62 216/2/61
f 217/2/62 220/2/63 218/2/62
f 219/2/63 222/2/64 220/2/63
f 155/2/47 158/2/48 157/2/48
f 221/2/64 224/2/65 222/2/64
f 161/2/35 224/2/65 223/2/65
f 159/2/49 158/2/48 160/2/49
f 99/2/33 161/2/33 97/2/33
f 101/2/33 162/2/33 99/2/33
f 103/2/33 165/2/33 101/2/33
f 169/2/33 103/2/33 105/2/33
f 107/2/33 169/2/33 105/2/33
f 109/2/33 171/2/33 107/2/33
f 175/2/33 109/2/33 111/2/33
f 177/2/33 111/2/33 113/2/33
f 179/2/33 113/2/33 115/2/33
f 181/2/33 115/2/33 117/2/33
f 183/2/33 117/2/33 119/2/33
f 185/2/33 119/2/33 121/2/33
f 123/2/33 185/2/33 121/2/33
f 125/2/33 187/2/33 123/2/33
f 191/2/33 125/2/33 127/2/33
f 129/2/33 191/2/33 127/2/33
f 195/2/33 129/2/33 131/2/33
f 133/2/33 195/2/33 131/2/33
f 199/2/33 133/2/33 135/2/33
f 201/2/33 135/2/33 137/2/33
f 139/2/33 201/2/33 137/2/33
f 205/2/33 139/2/33 141/2/33
f 207/2/33 141/2/33 143/2/33
f 209/2/33 143/2/33 145/2/33
f 147/2/33 209/2/33 145/2/33
f 149/2/33 211/2/33 147/2/33
f 215/2/33 149/2/33 151/2/33
f 217/2/33 151/2/33 153/2/33
f 155/2/33 217/2/33 153/2/33
f 221/2/33 155/2/33 157/2/33
f 159/2/33 221/2/33 157/2/33
f 161/2/33 159/2/33 97/2/33
f 97/2/50 160/2/49 98/2/50
f 99/2/51 98/2/50 100/2/51
f 101/2/52 100/2/51 102/2/52
f 103/2/53 102/2/52 104/2/53
f 104/2/53 105/2/54 103/2/53
f 106/2/54 107/2/55 105/2/54
f 108/2/55 109/2/56 107/2/55
f 110/2/56 111/2/57 109/2/56
f 112/2/57 113/2/58 111/2/57
f 114/2/58 115/2/59 113/2/58
f 116/2/59 117/2/60 115/2/59
f 118/2/60 119/2/61 117/2/60
f 120/2/61 121/2/62 119/2/61
f 122/2/62 123/2/63 121/2/62
f 124/2/63 125/2/64 123/2/63
f 126/2/64 127/2/65 125/2/64
f 128/2/65 129/2/35 127/2/65
f 130/2/35 131/2/34 129/2/35
f 132/2/34 133/2/36 131/2/34
f 133/2/36 136/2/37 135/2/37
f 135/2/37 138/2/38 137/2/38
f 137/2/38 140/2/39 139/2/39
f 139/2/39 142/2/40 141/2/40
f 141/2/40 144/2/41 143/2/41
f 143/2/41 146/2/42 145/2/42
f 145/2/42 148/2/43 147/2/43
f 147/2/43 150/2/44 149/2/44
f 149/2/44 152/2/45 151/2/45
f 151/2/45 154/2/46 153/2/46
f 153/2/46 156/2/47 155/2/47
f 225/1/33 236/1/33 234/1/33
f 36/1/1 35/1/1 34/1/1
f 35/1/2 38/1/2 37/1/2
f 38/1/3 40/1/3 39/1/3
f 40/1/4 42/1/4 41/1/4
f 42/1/5 44/1/5 43/1/5
f 44/1/6 46/1/6 45/1/6
f 45/1/7 46/1/7 48/1/7
f 48/1/8 50/1/8 49/1/8
f 50/1/9 52/1/9 51/1/9
f 52/1/10 54/1/10 53/1/10
f 53/1/11 54/1/11 56/1/11
f 56/1/12 58/1/12 57/1/12
f 57/1/13 58/1/13 60/1/13
f 60/1/14 62/1/14 61/1/14
f 61/1/15 62/1/15 64/1/15
f 64/1/16 66/1/16 65/1/16
f 65/1/17 66/1/17 68/1/17
f 68/1/18 70/1/18 69/1/18
f 69/1/19 70/1/19 72/1/19
f 72/1/20 74/1/20 73/1/20
f 73/1/21 74/1/21 76/1/21
f 75/1/22 76/1/22 78/1/22
f 78/1/23 80/1/23 79/1/23
f 79/1/24 80/1/24 82/1/24
f 81/1/25 82/1/25 84/1/25
f 83/1/26 84/1/26 86/1/26
f 86/1/27 88/1/27 87/1/27
f 87/1/28 88/1/28 90/1/28
f 90/1/29 92/1/29 91/1/29
f 91/1/30 92/1/30 94/1/30
f 94/1/31 96/1/31 95/1/31
f 96/1/32 36/1/32 33/1/32
f 2/1/33 35/1/33 36/1/33
f 3/1/33 38/1/33 35/1/33
f 4/1/33 40/1/33 38/1/33
f 5/1/33 42/1/33 40/1/33
f 6/1/33 44/1/33 42/1/33
f 7/1/33 46/1/33 44/1/33
f 8/1/33 48/1/33 46/1/33
f 9/1/33 50/1/33 48/1/33
f 10/1/33 52/1/33 50/1/33
f 11/1/33 54/1/33 52/1/33
f 12/1/33 56/1/33 54/1/33
f 13/1/33 58/1/33 56/1/33
f 14/1/33 60/1/33 58/1/33
f 15/1/33 62/1/33 60/1/33
f 16/1/33 64/1/33 62/1/33
f 17/1/33 66/1/33 64/1/33
f 18/1/33 68/1/33 66/1/33
f 19/1/33 70/1/33 68/1/33
f 20/1/33 72/1/33 70/1/33
f 21/1/33 74/1/33 72/1/33
f 22/1/33 76/1/33 74/1/33
f 23/1/33 78/1/33 76/1/33
f 24/1/33 80/1/33 78/1/33
f 25/1/33 82/1/33 80/1/33
f 26/1/33 84/1/33 82/1/33
f 27/1/33 86/1/33 84/1/33
f 28/1/33 88/1/33 86/1/33
f 29/1/33 90/1/33 88/1/33
f 30/1/33 92/1/33 90/1/33
f 31/1/33 94/1/33 92/1/33
f 32/1/33 96/1/33 94/1/33
f 1/1/33 36/1/33 96/1/33
f 162/2/34 163/2/34 164/2/35
f 165/2/36 166/2/36 163/2/34
f 167/2/37 168/2/37 166/2/36
f 169/2/38 170/2/38 168/2/37
f 171/2/39 172/2/39 170/2/38
f 173/2/40 174/2/40 172/2/39
f 175/2/41 176/2/41 174/2/40
f 177/2/42 178/2/42 176/2/41
f 179/2/43 180/2/43 178/2/42
f 181/2/44 182/2/44 180/2/43
f 183/2/45 184/2/45 182/2/44
f 185/2/46 186/2/46 184/2/45
f 187/2/47 188/2/47 186/2/46
f 189/2/48 190/2/48 188/2/47
f 191/2/49 192/2/49 190/2/48
f 193/2/50 194/2/50 192/2/49
f 195/2/51 196/2/51 194/2/50
f 195/2/51 197/2/52 198/2/52
f 199/2/53 200/2/53 198/2/52
f 199/2/53 201/2/54 202/2/54
f 201/2/54 203/2/55 204/2/55
f 203/2/55 205/2/56 206/2/56
f 205/2/56 207/2/57 208/2/57
f 209/2/58 210/2/58 208/2/57
f 211/2/59 212/2/59 210/2/58
f 211/2/59 213/2/60 214/2/60
f 213/2/60 215/2/61 216/2/61
f 215/2/61 217/2/62 218/2/62
f 217/2/62 219/2/63 220/2/63
f 219/2/63 221/2/64 222/2/64
f 155/2/47 156/2/47 158/2/48
f 221/2/64 223/2/65 224/2/65
f 161/2/35 164/2/35 224/2/65
f 159/2/49 157/2/48 158/2/48
f 99/2/33 162/2/33 161/2/33
f 101/2/33 165/2/33 162/2/33
f 103/2/33 167/2/33 165/2/33
f 169/2/33 167/2/33 103/2/33
f 107/2/33 171/2/33 169/2/33
f 109/2/33 173/2/33 171/2/33
f 175/2/33 173/2/33 109/2/33
f 177/2/33 175/2/33 111/2/33
f 179/2/33 177/2/33 113/2/33
f 181/2/33 179/2/33 115/2/33
f 183/2/33 181/2/33 117/2/33
f 185/2/33 183/2/33 119/2/33
f 123/2/33 187/2/33 185/2/33
f 125/2/33 189/2/33 187/2/33
f 191/2/33 189/2/33 125/2/33
f 129/2/33 193/2/33 191/2/33
f 195/2/33 193/2/33 129/2/33
f 133/2/33 197/2/33 195/2/33
f 199/2/33 197/2/33 133/2/33
f 201/2/33 199/2/33 135/2/33
f 139/2/33 203/2/33 201/2/33
f 205/2/33 203/2/33 139/2/33
f 207/2/33 205/2/33 141/2/33
f 209/2/33 207/2/33 143/2/33
f 147/2/33 211/2/33 209/2/33
f 149/2/33 213/2/33 211/2/33
f 215/2/33 213/2/33 149/2/33
f 217/2/33 215/2/33 151/2/33
f 155/2/33 219/2/33 217/2/33
f 221/2/33 219/2/33 155/2/33
f 159/2/33 223/2/33 221/2/33
f 161/2/33 223/2/33 159/2/33
f 97/2/50 159/2/49 160/2/49
f 99/2/51 97/2/50 98/2/50
f 101/2/52 99/2/51 100/2/51
f 103/2/53 101/2/52 102/2/52
f 104/2/53 106/2/54 105/2/54
f 106/2/54 108/2/55 107/2/55
f 108/2/55 110/2/56 109/2/56
f 110/2/56 112/2/57 111/2/57
f 112/2/57 114/2/58 113/2/58
f 114/2/58 116/2/59 115/2/59
f 116/2/59 118/2/60 117/2/60
f 118/2/60 120/2/61 119/2/61
f 120/2/61 122/2/62 121/2/62
f 122/2/62 124/2/63 123/2/63
f 124/2/63 126/2/64 125/2/64
f 126/2/64 128/2/65 127/2/65
f 128/2/65 130/2/35 129/2/35
f 130/2/35 132/2/34 131/2/34
f 132/2/34 134/2/36 133/2/36
f 133/2/36 134/2/36 136/2/37
f 135/2/37 136/2/37 138/2/38
f 137/2/38 138/2/38 140/2/39
f 139/2/39 140/2/39 142/2/40
f 141/2/40 142/2/40 144/2/41
f 143/2/41 144/2/41 146/2/42
f 145/2/42 146/2/42 148/2/43
f 147/2/43 148/2/43 150/2/44
f 149/2/44 150/2/44 152/2/45
f 151/2/45 152/2/45 154/2/46
f 153/2/46 154/2/46 156/2/47
f 234/1/33 232/1/33 227/1/33
f 227/1/33 226/1/33 225/1/33
f 225/1/33 230/1/33 229/1/33
f 229/1/33 228/1/33 236/1/33
f 236/1/33 235/1/33 231/1/33
f 231/1/33 233/1/33 234/1/33
f 234/1/33 227/1/33 225/1/33
f 225/1/33 229/1/33 236/1/33
f 236/1/33 231/1/33 234/1/33
