# Blender 4.2.3 LTS
# www.blender.org
mtllib Exit.mtl
o Exit
v 0.200000 -3.000000 -0.600000
v 0.200000 -1.000000 -0.600000
v 4.200000 -3.000000 -2.000000
v 4.200000 1.000000 -2.000000
v 0.200000 -3.000000 0.600000
v 0.200000 -1.000000 0.600000
v 4.200000 -3.000000 2.000000
v 4.200000 1.000000 2.000000
v 0.200000 -3.000000 -2.000000
v 0.200000 1.000000 -2.000000
v 0.200000 1.000000 2.000000
v 0.200000 -3.000000 2.000000
v 0.300000 -1.000000 0.600000
v 4.100000 -3.000000 -1.900000
v 0.300000 -3.000000 0.600000
v 4.100000 -3.000000 1.900000
v 0.300000 -3.000000 1.900000
v 0.300000 -3.000000 -0.600000
v 0.300000 -3.000000 -1.900000
v 0.300000 -1.000000 -0.600000
v 4.100000 -2.900000 1.900000
v 4.100000 -3.000000 1.900000
v 0.200000 -2.900000 1.900000
v 0.200000 -3.000000 1.900000
v 4.100000 -2.900000 -1.900000
v 4.100000 -3.000000 -1.900000
v 0.200000 -2.900000 -1.900000
v 0.200000 -3.000000 -1.900000
vn -0.0000 -0.0000 -1.0000
vn 1.0000 -0.0000 -0.0000
vn -0.0000 -0.0000 1.0000
vn -0.0000 -1.0000 -0.0000
vn -0.0000 1.0000 -0.0000
vn -1.0000 -0.0000 -0.0000
vt 0.250000 0.750000
s 0
usemtl Exit
f 10/1/1 3/1/1 9/1/1
f 4/1/2 7/1/2 3/1/2
f 8/1/3 12/1/3 7/1/3
f 7/1/4 14/1/4 3/1/4
f 4/1/5 11/1/5 8/1/5
f 2/1/6 9/1/6 1/1/6
f 6/1/6 12/1/6 11/1/6
f 6/1/6 10/1/6 2/1/6
f 1/1/4 19/1/4 18/1/4
f 3/1/4 19/1/4 9/1/4
f 5/1/4 17/1/4 12/1/4
f 12/1/4 16/1/4 7/1/4
f 15/1/1 6/1/1 13/1/1
f 2/1/3 18/1/3 20/1/3
f 6/1/4 20/1/4 13/1/4
f 22/1/4 28/1/4 26/1/4
f 25/1/2 22/1/2 26/1/2
f 27/1/1 26/1/1 28/1/1
f 23/1/6 28/1/6 24/1/6
f 21/1/3 24/1/3 22/1/3
f 10/1/1 4/1/1 3/1/1
f 4/1/2 8/1/2 7/1/2
f 8/1/3 11/1/3 12/1/3
f 7/1/4 16/1/4 14/1/4
f 4/1/5 10/1/5 11/1/5
f 2/1/6 10/1/6 9/1/6
f 6/1/6 5/1/6 12/1/6
f 6/1/6 11/1/6 10/1/6
f 1/1/4 9/1/4 19/1/4
f 3/1/4 14/1/4 19/1/4
f 5/1/4 15/1/4 17/1/4
f 12/1/4 17/1/4 16/1/4
f 15/1/1 5/1/1 6/1/1
f 2/1/3 1/1/3 18/1/3
f 6/1/4 2/1/4 20/1/4
f 22/1/4 24/1/4 28/1/4
f 25/1/2 21/1/2 22/1/2
f 27/1/1 25/1/1 26/1/1
f 23/1/6 27/1/6 28/1/6
f 21/1/3 23/1/3 24/1/3
