# Blender 4.2.3 LTS
# www.blender.org
mtllib attack.mtl
o Cube.001
v 76.672127 -0.499995 0.500000
v 76.672127 0.500005 0.500000
v -59.508598 -0.500000 0.500000
v -59.508598 0.500000 0.500000
v 76.672127 -0.499995 -0.200000
v 76.672127 -0.199995 -0.500000
v 76.672127 0.200005 -0.500000
v 76.672127 0.500005 -0.200000
v -59.508598 -0.200000 -0.500000
v -59.508598 -0.500000 -0.200000
v -59.508598 0.500000 -0.200000
v -59.508598 0.200000 -0.500000
vn -0.0000 0.3827 -0.9239
vn -0.0000 -0.3827 -0.9239
vn -0.0000 1.0000 -0.0000
vn -0.0000 0.9239 -0.3827
vn -0.0000 -0.9239 -0.3827
vn -0.0000 -1.0000 -0.0000
vt 0.000000 0.600000
vt 0.000000 0.400000
vt 1.000000 0.400000
vt 1.000000 0.600000
vt 1.000000 1.000000
vt 0.000000 1.000000
vt 0.000000 0.825000
vt 1.000000 0.825000
vt 0.000000 0.175000
vt 1.000000 0.175000
vt 0.000000 0.000000
vt 1.000000 0.000000
s 1
usemtl Material.002
f 7/1/1 6/2/2 9/3/2 12/4/1
f 4/5/3 2/6/3 8/7/4 11/8/4
f 5/9/5 10/10/5 9/3/2 6/2/2
f 7/1/1 12/4/1 11/8/4 8/7/4
f 1/11/6 3/12/6 10/10/5 5/9/5
