# Blender 4.2.3 LTS
# www.blender.org
mtllib ExitEmissive.mtl
o ExitEmissive
v 0.300000 -1.000000 0.600000
v 4.100000 -3.000000 -1.900000
v 0.300000 -3.000000 0.600000
v 4.100000 -3.000000 1.900000
v 4.100000 -1.000000 -1.900000
v 0.300000 -3.000000 1.900000
v 0.300000 -3.000000 -0.600000
v 0.300000 -3.000000 -1.900000
v 4.100000 -1.000000 1.900000
v 0.300000 -1.000000 1.900000
v 0.300000 -1.000000 -0.600000
v 0.300000 -1.000000 -1.900000
v 0.300000 0.900000 0.600000
v 4.100000 0.900000 -1.900000
v 4.100000 0.900000 1.900000
v 0.300000 0.900000 1.900000
v 0.300000 0.900000 -0.600000
v 0.300000 0.900000 -1.900000
v 4.100000 -2.900000 1.900000
v 0.200000 -2.900000 1.900000
v 4.100000 -2.900000 -1.900000
v 0.200000 -2.900000 -1.900000
vn -0.0000 -0.0000 1.0000
vn -1.0000 -0.0000 -0.0000
vn 1.0000 -0.0000 -0.0000
vn -0.0000 -0.0000 -1.0000
vn -0.0000 1.0000 -0.0000
vn -0.0000 -1.0000 -0.0000
vt 0.750000 0.750000
s 0
usemtl Exit
f 2/1/1 12/1/1 8/1/1
f 4/1/2 5/1/2 2/1/2
f 3/1/3 10/1/3 6/1/3
f 6/1/4 9/1/4 4/1/4
f 8/1/3 11/1/3 7/1/3
f 9/1/2 14/1/2 5/1/2
f 5/1/1 18/1/1 12/1/1
f 11/1/3 13/1/3 1/1/3
f 10/1/4 15/1/4 9/1/4
f 12/1/3 17/1/3 11/1/3
f 1/1/3 16/1/3 10/1/3
f 21/1/5 20/1/5 19/1/5
f 16/1/6 13/1/6 15/1/6
f 14/1/6 13/1/6 17/1/6
f 18/1/6 14/1/6 17/1/6
f 13/1/6 14/1/6 15/1/6
f 2/1/1 5/1/1 12/1/1
f 4/1/2 9/1/2 5/1/2
f 3/1/3 1/1/3 10/1/3
f 6/1/4 10/1/4 9/1/4
f 8/1/3 12/1/3 11/1/3
f 9/1/2 15/1/2 14/1/2
f 5/1/1 14/1/1 18/1/1
f 11/1/3 17/1/3 13/1/3
f 10/1/4 16/1/4 15/1/4
f 12/1/3 18/1/3 17/1/3
f 1/1/3 13/1/3 16/1/3
f 21/1/5 22/1/5 20/1/5
