# Blender 4.2.1 LTS
# www.blender.org
mtllib DownNeedle.mtl
o DownNeedle
v 0.000000 0.900000 0.500000
v 0.097545 0.900000 0.490392
v 0.191342 0.900000 0.461940
v 0.277785 0.900000 0.415735
v 0.353554 0.900000 0.353553
v 0.415735 0.900000 0.277785
v 0.461940 0.900000 0.191342
v 0.490393 0.900000 0.097545
v 0.500000 0.900000 -0.000000
v 0.490393 0.900000 -0.097545
v 0.461940 0.900000 -0.191342
v 0.415735 0.900000 -0.277785
v 0.353554 0.900000 -0.353554
v 0.277785 0.900000 -0.415735
v 0.191342 0.900000 -0.461940
v 0.097545 0.900000 -0.490393
v 0.000000 0.900000 -0.500000
v -0.097545 0.900000 -0.490393
v -0.191342 0.900000 -0.461940
v -0.277785 0.900000 -0.415735
v -0.353553 0.900000 -0.353554
v -0.415735 0.900000 -0.277785
v -0.461940 0.900000 -0.191342
v -0.490392 0.900000 -0.097545
v -0.500000 0.900000 -0.000000
v -0.490392 0.900000 0.097545
v -0.461940 0.900000 0.191342
v -0.415735 0.900000 0.277785
v -0.353553 0.900000 0.353553
v -0.277785 0.900000 0.415735
v -0.191342 0.900000 0.461940
v -0.097545 0.900000 0.490392
v 0.000000 0.000000 0.000000
v 0.000000 0.800000 0.700000
v 0.136563 0.800000 0.686549
v 0.267879 0.800000 0.646715
v 0.388899 0.800000 0.582028
v 0.494975 0.800000 0.494975
v 0.582029 0.800000 0.388899
v 0.646716 0.800000 0.267878
v 0.686550 0.800000 0.136563
v 0.700000 0.800000 -0.000000
v 0.686550 0.800000 -0.136563
v 0.646716 0.800000 -0.267879
v 0.582029 0.800000 -0.388899
v 0.494975 0.800000 -0.494975
v 0.388899 0.800000 -0.582029
v 0.267879 0.800000 -0.646716
v 0.136563 0.800000 -0.686550
v 0.000000 0.800000 -0.700000
v -0.136563 0.800000 -0.686550
v -0.267878 0.800000 -0.646716
v -0.388899 0.800000 -0.582029
v -0.494975 0.800000 -0.494975
v -0.582029 0.800000 -0.388899
v -0.646716 0.800000 -0.267879
v -0.686550 0.800000 -0.136563
v -0.700000 0.800000 -0.000000
v -0.686550 0.800000 0.136563
v -0.646716 0.800000 0.267878
v -0.582029 0.800000 0.388899
v -0.494975 0.800000 0.494975
v -0.388899 0.800000 0.582028
v -0.267878 0.800000 0.646715
v -0.136563 0.800000 0.686549
v 0.000000 1.000000 0.999999
v 0.195090 1.000000 0.980784
v 0.382683 1.000000 0.923878
v 0.555570 1.000000 0.831468
v 0.707106 1.000000 0.707106
v 0.831469 1.000000 0.555569
v 0.923879 1.000000 0.382683
v 0.980784 1.000000 0.195090
v 0.999999 1.000000 -0.000000
v 0.980784 1.000000 -0.195090
v 0.923879 1.000000 -0.382683
v 0.831469 1.000000 -0.555570
v 0.707106 1.000000 -0.707106
v 0.555570 1.000000 -0.831469
v 0.382683 1.000000 -0.923879
v 0.195090 1.000000 -0.980785
v 0.000000 1.000000 -0.999999
v -0.195090 1.000000 -0.980785
v -0.382683 1.000000 -0.923879
v -0.555570 1.000000 -0.831469
v -0.707106 1.000000 -0.707106
v -0.831468 1.000000 -0.555570
v -0.923878 1.000000 -0.382683
v -0.980784 1.000000 -0.195090
v -0.999999 1.000000 -0.000000
v -0.980784 1.000000 0.195090
v -0.923878 1.000000 0.382683
v -0.831468 1.000000 0.555569
v -0.707106 1.000000 0.707106
v -0.555570 1.000000 0.831468
v -0.382683 1.000000 0.923878
v -0.195090 1.000000 0.980784
vn -0.0000 -0.4856 0.8742
vn -0.0000 -1.0000 -0.0000
vn 0.1705 -0.4856 0.8574
vn 0.3345 -0.4856 0.8076
vn 0.4857 -0.4856 0.7268
vn 0.6181 -0.4856 0.6181
vn 0.7268 -0.4856 0.4857
vn 0.8076 -0.4856 0.3345
vn 0.8574 -0.4856 0.1705
vn 0.8742 -0.4856 -0.0000
vn 0.8574 -0.4856 -0.1705
vn 0.8076 -0.4856 -0.3345
vn 0.7268 -0.4856 -0.4857
vn 0.6181 -0.4856 -0.6181
vn 0.4857 -0.4856 -0.7268
vn 0.3345 -0.4856 -0.8076
vn 0.1705 -0.4856 -0.8574
vn -0.0000 -0.4856 -0.8742
vn -0.1705 -0.4856 -0.8574
vn -0.3345 -0.4856 -0.8076
vn -0.4857 -0.4856 -0.7268
vn -0.6181 -0.4856 -0.6181
vn -0.7268 -0.4856 -0.4857
vn -0.8076 -0.4856 -0.3345
vn -0.8574 -0.4856 -0.1705
vn -0.8742 -0.4856 -0.0000
vn -0.8574 -0.4856 0.1705
vn -0.8076 -0.4856 0.3345
vn -0.7268 -0.4856 0.4857
vn -0.6181 -0.4856 0.6181
vn -0.4857 -0.4856 0.7268
vn -0.3345 -0.4856 0.8076
vn 0.0872 -0.8944 -0.4386
vn 0.1711 -0.8944 -0.4132
vn -0.1705 -0.4856 0.8574
vn -0.5440 -0.8320 0.1082
vn -0.5547 -0.8320 -0.0000
vn -0.3718 -0.8944 0.2485
vn -0.4132 -0.8944 0.1711
vn 0.1711 -0.8944 0.4132
vn 0.0872 -0.8944 0.4386
vn 0.4472 -0.8944 -0.0000
vn 0.4386 -0.8944 -0.0872
vn -0.3162 -0.8944 -0.3162
vn -0.3718 -0.8944 -0.2485
vn -0.0000 -0.8944 -0.4472
vn -0.3162 -0.8944 0.3162
vn 0.2485 -0.8944 0.3718
vn 0.4132 -0.8944 -0.1711
vn -0.4132 -0.8944 -0.1711
vn -0.2485 -0.8944 0.3718
vn 0.3162 -0.8944 0.3162
vn 0.3718 -0.8944 -0.2485
vn -0.4386 -0.8944 -0.0872
vn -0.0872 -0.8944 -0.4386
vn -0.1711 -0.8944 0.4132
vn 0.3718 -0.8944 0.2485
vn 0.3162 -0.8944 -0.3162
vn -0.4472 -0.8944 -0.0000
vn -0.0872 -0.8944 0.4386
vn 0.4132 -0.8944 0.1711
vn -0.1711 -0.8944 -0.4132
vn 0.2485 -0.8944 -0.3718
vn -0.4386 -0.8944 0.0872
vn -0.0000 -0.8944 0.4472
vn 0.4386 -0.8944 0.0872
vn -0.2485 -0.8944 -0.3718
vn -0.0000 1.0000 -0.0000
vn 0.3922 -0.8320 -0.3922
vn 0.4612 -0.8320 -0.3082
vn -0.5125 -0.8320 0.2123
vn 0.3082 -0.8320 -0.4612
vn -0.4612 -0.8320 0.3082
vn 0.2123 -0.8320 -0.5125
vn -0.0000 -0.8320 0.5547
vn 0.1082 -0.8320 0.5440
vn -0.3922 -0.8320 0.3922
vn 0.1082 -0.8320 -0.5440
vn 0.2123 -0.8320 0.5125
vn -0.3082 -0.8320 0.4612
vn -0.0000 -0.8320 -0.5547
vn 0.3082 -0.8320 0.4612
vn -0.2123 -0.8320 0.5125
vn -0.1082 -0.8320 -0.5440
vn 0.3922 -0.8320 0.3922
vn -0.1082 -0.8320 0.5440
vn -0.2123 -0.8320 -0.5125
vn 0.4612 -0.8320 0.3082
vn -0.3082 -0.8320 -0.4612
vn 0.5125 -0.8320 0.2123
vn -0.3922 -0.8320 -0.3922
vn 0.5440 -0.8320 0.1082
vn -0.4612 -0.8320 -0.3082
vn 0.5547 -0.8320 -0.0000
vn -0.5125 -0.8320 -0.2123
vn 0.5440 -0.8320 -0.1082
vn -0.5440 -0.8320 -0.1082
vn 0.5125 -0.8320 -0.2123
vt 0.250000 0.990000
vt 0.250000 0.750000
vt 0.296822 0.985388
vt 0.341844 0.971731
vt 0.383337 0.949553
vt 0.419706 0.919706
vt 0.449553 0.883337
vt 0.471731 0.841844
vt 0.485388 0.796822
vt 0.490000 0.750000
vt 0.485388 0.703178
vt 0.471731 0.658156
vt 0.449553 0.616663
vt 0.419706 0.580294
vt 0.383337 0.550447
vt 0.341844 0.528269
vt 0.296822 0.514612
vt 0.250000 0.510000
vt 0.203178 0.514612
vt 0.158156 0.528269
vt 0.116663 0.550447
vt 0.080294 0.580294
vt 0.050447 0.616663
vt 0.028269 0.658156
vt 0.014612 0.703178
vt 0.010000 0.750000
vt 0.014612 0.796822
vt 0.028269 0.841844
vt 0.050447 0.883337
vt 0.080294 0.919706
vt 0.116663 0.949553
vt 0.158156 0.971731
vt 0.870318 0.398539
vt 0.865816 0.397173
vt 0.203178 0.985388
vt 0.851461 0.379682
vt 0.851000 0.375000
vt 0.894955 0.361666
vt 0.897173 0.365816
vt 0.865816 0.352827
vt 0.870318 0.351461
vt 0.891971 0.391971
vt 0.894955 0.388334
vt 0.875000 0.399000
vt 0.891971 0.358029
vt 0.861666 0.355045
vt 0.852827 0.384184
vt 0.897173 0.384184
vt 0.888334 0.355045
vt 0.858029 0.358029
vt 0.855045 0.388334
vt 0.898539 0.379682
vt 0.879682 0.398539
vt 0.884184 0.352827
vt 0.855045 0.361666
vt 0.858029 0.391971
vt 0.899000 0.375000
vt 0.879682 0.351461
vt 0.852827 0.365816
vt 0.884184 0.397173
vt 0.861666 0.394955
vt 0.898539 0.370318
vt 0.875000 0.351000
vt 0.851461 0.370318
vt 0.888334 0.394955
vt 0.796822 0.014612
vt 0.514612 0.203178
vt 0.703178 0.485388
vt 0.750000 0.490000
vt 0.796822 0.485388
vt 0.841844 0.471731
vt 0.883337 0.449553
vt 0.919706 0.419706
vt 0.949553 0.383337
vt 0.971731 0.341844
vt 0.985388 0.296822
vt 0.990000 0.250000
vt 0.985388 0.203178
vt 0.971731 0.158156
vt 0.949553 0.116663
vt 0.919706 0.080294
vt 0.883337 0.050447
vt 0.841844 0.028269
vt 0.750000 0.010000
vt 0.703178 0.014612
vt 0.658156 0.028269
vt 0.616663 0.050447
vt 0.580294 0.080294
vt 0.550447 0.116663
vt 0.528269 0.158156
vt 0.510000 0.250000
vt 0.514612 0.296822
vt 0.528269 0.341844
vt 0.550447 0.383337
vt 0.580294 0.419706
vt 0.616663 0.449553
vt 0.658156 0.471731
s 1
usemtl Cube
f 1/1/1 33/2/2 2/3/3
f 2/3/3 33/2/2 3/4/4
f 3/4/4 33/2/2 4/5/5
f 4/5/5 33/2/2 5/6/6
f 5/6/6 33/2/2 6/7/7
f 6/7/7 33/2/2 7/8/8
f 7/8/8 33/2/2 8/9/9
f 8/9/9 33/2/2 9/10/10
f 9/10/10 33/2/2 10/11/11
f 10/11/11 33/2/2 11/12/12
f 11/12/12 33/2/2 12/13/13
f 12/13/13 33/2/2 13/14/14
f 13/14/14 33/2/2 14/15/15
f 14/15/15 33/2/2 15/16/16
f 15/16/16 33/2/2 16/17/17
f 16/17/17 33/2/2 17/18/18
f 17/18/18 33/2/2 18/19/19
f 18/19/19 33/2/2 19/20/20
f 19/20/20 33/2/2 20/21/21
f 20/21/21 33/2/2 21/22/22
f 21/22/22 33/2/2 22/23/23
f 22/23/23 33/2/2 23/24/24
f 23/24/24 33/2/2 24/25/25
f 24/25/25 33/2/2 25/26/26
f 25/26/26 33/2/2 26/27/27
f 26/27/27 33/2/2 27/28/28
f 27/28/28 33/2/2 28/29/29
f 28/29/29 33/2/2 29/30/30
f 29/30/30 33/2/2 30/31/31
f 30/31/31 33/2/2 31/32/32
f 32/33/33 64/34/34 31/34/34
f 31/32/32 33/2/2 32/35/35
f 32/35/35 33/2/2 1/1/1
f 59/36/36 90/37/37 58/37/37
f 12/38/38 44/39/39 11/39/39
f 19/40/40 51/41/41 18/41/41
f 25/37/42 59/36/43 58/37/42
f 5/42/44 39/43/45 38/42/44
f 1/44/46 65/33/33 32/33/33
f 12/38/38 46/45/47 45/38/38
f 19/40/40 53/46/48 52/40/40
f 27/47/49 59/36/43 26/36/43
f 7/48/50 39/43/45 6/43/45
f 14/49/51 46/45/47 13/45/47
f 21/50/52 53/46/48 20/46/48
f 28/51/53 60/47/49 27/47/49
f 8/52/54 40/48/50 7/48/50
f 2/53/55 34/44/46 1/44/46
f 15/54/56 47/49/51 14/49/51
f 22/55/57 54/50/52 21/50/52
f 29/56/58 61/51/53 28/51/53
f 9/57/59 41/52/54 8/52/54
f 15/54/56 49/58/60 48/54/56
f 23/59/61 55/55/57 22/55/57
f 3/60/62 35/53/55 2/53/55
f 29/56/58 63/61/63 62/56/58
f 10/62/64 42/57/59 9/57/59
f 17/63/65 49/58/60 16/58/60
f 24/64/66 56/59/61 23/59/61
f 4/65/67 36/60/62 3/60/62
f 30/61/63 64/34/34 63/61/63
f 11/39/39 43/62/64 10/62/64
f 18/41/41 50/63/65 17/63/65
f 25/37/42 57/64/66 24/64/66
f 5/42/44 37/65/67 4/65/67
f 81/66/68 89/67/68 97/68/68
f 46/45/69 77/38/70 45/38/70
f 60/47/71 91/36/36 59/36/36
f 46/45/69 79/49/72 78/45/69
f 60/47/71 93/51/73 92/47/71
f 48/54/74 79/49/72 47/49/72
f 34/44/75 67/53/76 66/44/75
f 62/56/77 93/51/73 61/51/73
f 49/58/78 80/54/74 48/54/74
f 36/60/79 67/53/76 35/53/76
f 63/61/80 94/56/77 62/56/77
f 49/58/78 82/63/81 81/58/78
f 37/65/82 68/60/79 36/60/79
f 63/61/80 96/34/83 95/61/80
f 51/41/84 82/63/81 50/63/81
f 38/42/85 69/65/82 37/65/82
f 64/34/83 97/33/86 96/34/83
f 52/40/87 83/41/84 51/41/84
f 38/42/85 71/43/88 70/42/85
f 34/44/75 97/33/86 65/33/86
f 53/46/89 84/40/87 52/40/87
f 40/48/90 71/43/88 39/43/88
f 54/50/91 85/46/89 53/46/89
f 41/52/92 72/48/90 40/48/90
f 55/55/93 86/50/91 54/50/91
f 42/57/94 73/52/92 41/52/92
f 56/59/95 87/55/93 55/55/93
f 43/62/96 74/57/94 42/57/94
f 57/64/97 88/59/95 56/59/95
f 44/39/98 75/62/96 43/62/96
f 57/64/97 90/37/37 89/64/97
f 45/38/70 76/39/98 44/39/98
f 32/33/33 65/33/33 64/34/34
f 59/36/36 91/36/36 90/37/37
f 12/38/38 45/38/38 44/39/39
f 19/40/40 52/40/40 51/41/41
f 25/37/42 26/36/43 59/36/43
f 5/42/44 6/43/45 39/43/45
f 1/44/46 34/44/46 65/33/33
f 12/38/38 13/45/47 46/45/47
f 19/40/40 20/46/48 53/46/48
f 27/47/49 60/47/49 59/36/43
f 7/48/50 40/48/50 39/43/45
f 14/49/51 47/49/51 46/45/47
f 21/50/52 54/50/52 53/46/48
f 28/51/53 61/51/53 60/47/49
f 8/52/54 41/52/54 40/48/50
f 2/53/55 35/53/55 34/44/46
f 15/54/56 48/54/56 47/49/51
f 22/55/57 55/55/57 54/50/52
f 29/56/58 62/56/58 61/51/53
f 9/57/59 42/57/59 41/52/54
f 15/54/56 16/58/60 49/58/60
f 23/59/61 56/59/61 55/55/57
f 3/60/62 36/60/62 35/53/55
f 29/56/58 30/61/63 63/61/63
f 10/62/64 43/62/64 42/57/59
f 17/63/65 50/63/65 49/58/60
f 24/64/66 57/64/66 56/59/61
f 4/65/67 37/65/67 36/60/62
f 30/61/63 31/34/34 64/34/34
f 11/39/39 44/39/39 43/62/64
f 18/41/41 51/41/41 50/63/65
f 25/37/42 58/37/42 57/64/66
f 5/42/44 38/42/44 37/65/67
f 97/68/68 66/69/68 67/70/68
f 67/70/68 68/71/68 69/72/68
f 69/72/68 70/73/68 71/74/68
f 71/74/68 72/75/68 73/76/68
f 73/76/68 74/77/68 75/78/68
f 75/78/68 76/79/68 77/80/68
f 77/80/68 78/81/68 79/82/68
f 79/82/68 80/83/68 81/66/68
f 81/66/68 82/84/68 83/85/68
f 83/85/68 84/86/68 85/87/68
f 85/87/68 86/88/68 87/89/68
f 87/89/68 88/90/68 89/67/68
f 89/67/68 90/91/68 91/92/68
f 91/92/68 92/93/68 93/94/68
f 93/94/68 94/95/68 95/96/68
f 95/96/68 96/97/68 97/68/68
f 97/68/68 67/70/68 69/72/68
f 69/72/68 71/74/68 73/76/68
f 73/76/68 75/78/68 77/80/68
f 77/80/68 79/82/68 81/66/68
f 81/66/68 83/85/68 85/87/68
f 85/87/68 87/89/68 89/67/68
f 89/67/68 91/92/68 93/94/68
f 93/94/68 95/96/68 97/68/68
f 97/68/68 69/72/68 73/76/68
f 73/76/68 77/80/68 81/66/68
f 81/66/68 85/87/68 89/67/68
f 89/67/68 93/94/68 97/68/68
f 97/68/68 73/76/68 81/66/68
f 46/45/69 78/45/69 77/38/70
f 60/47/71 92/47/71 91/36/36
f 46/45/69 47/49/72 79/49/72
f 60/47/71 61/51/73 93/51/73
f 48/54/74 80/54/74 79/49/72
f 34/44/75 35/53/76 67/53/76
f 62/56/77 94/56/77 93/51/73
f 49/58/78 81/58/78 80/54/74
f 36/60/79 68/60/79 67/53/76
f 63/61/80 95/61/80 94/56/77
f 49/58/78 50/63/81 82/63/81
f 37/65/82 69/65/82 68/60/79
f 63/61/80 64/34/83 96/34/83
f 51/41/84 83/41/84 82/63/81
f 38/42/85 70/42/85 69/65/82
f 64/34/83 65/33/86 97/33/86
f 52/40/87 84/40/87 83/41/84
f 38/42/85 39/43/88 71/43/88
f 34/44/75 66/44/75 97/33/86
f 53/46/89 85/46/89 84/40/87
f 40/48/90 72/48/90 71/43/88
f 54/50/91 86/50/91 85/46/89
f 41/52/92 73/52/92 72/48/90
f 55/55/93 87/55/93 86/50/91
f 42/57/94 74/57/94 73/52/92
f 56/59/95 88/59/95 87/55/93
f 43/62/96 75/62/96 74/57/94
f 57/64/97 89/64/97 88/59/95
f 44/39/98 76/39/98 75/62/96
f 57/64/97 58/37/37 90/37/37
f 45/38/70 77/38/70 76/39/98
