{
	"asset":{
		"generator":"Khronos glTF Blender I/O v4.1.63",
		"version":"2.0"
	},
	"scene":0,
	"scenes":[
		{
			"name":"Scene",
			"nodes":[
				16
			]
		}
	],
	"nodes":[
		{
			"name":"forearm.L",
			"rotation":[
				1.4569664918973046e-11,
				7.229476750580943e-08,
				2.048908775975633e-08,
				1
			],
			"translation":[
				3.143216353862499e-09,
				0.2830067574977875,
				-4.884981308350689e-15
			]
		},
		{
			"children":[
				0
			],
			"name":"upper_arm.L",
			"rotation":[
				-0.4999000132083893,
				0.4998999834060669,
				-0.5001000165939331,
				0.5001000165939331
			],
			"scale":[
				1,
				0.9999998807907104,
				0.9999999403953552
			],
			"translation":[
				-3.4117819680545836e-11,
				0.1886710822582245,
				3.352715438609266e-08
			]
		},
		{
			"children":[
				1
			],
			"name":"shoulder.L",
			"rotation":[
				-0.49812671542167664,
				-0.5016670823097229,
				-0.4983259439468384,
				0.5018677115440369
			],
			"scale":[
				0.9999999403953552,
				0.9999998807907104,
				1
			],
			"translation":[
				0.03773421049118042,
				0.6792157888412476,
				0
			]
		},
		{
			"name":"forearm.R",
			"rotation":[
				2.897452802452837e-15,
				2.929997577894028e-09,
				1.8790110800637194e-08,
				1
			],
			"translation":[
				-4.3915704406316536e-12,
				0.2830066978931427,
				5.235159922399108e-19
			]
		},
		{
			"children":[
				3
			],
			"name":"upper_arm.R",
			"rotation":[
				-0.4998999834060669,
				-0.49990007281303406,
				0.5001000165939331,
				0.5001000165939331
			],
			"scale":[
				1,
				0.9999999403953552,
				1
			],
			"translation":[
				0,
				0.1886710524559021,
				0
			]
		},
		{
			"children":[
				4
			],
			"name":"shoulder.R",
			"rotation":[
				-0.4998999834060669,
				0.4998999834060669,
				0.5001000165939331,
				0.5001000165939331
			],
			"translation":[
				-0.03773421049118042,
				0.6792157888412476,
				0
			]
		},
		{
			"name":"shin.L",
			"rotation":[
				-2.9802322387695312e-08,
				-2.7474023056583974e-08,
				-2.9802320611338473e-08,
				1
			],
			"translation":[
				5.635727995390027e-10,
				0.37734222412109375,
				-5.551115123125783e-16
			]
		},
		{
			"children":[
				6
			],
			"name":"thigh.L",
			"rotation":[
				-0.6582640409469604,
				-0.2726617455482483,
				0.648260772228241,
				0.26851826906204224
			],
			"scale":[
				0.9999999403953552,
				0.9999999403953552,
				1
			],
			"translation":[
				0,
				0.16009274125099182,
				0
			]
		},
		{
			"children":[
				7
			],
			"name":"hip.L",
			"rotation":[
				-0.2685182988643646,
				-0.648260772228241,
				-0.2726617753505707,
				0.6582640409469604
			],
			"scale":[
				0.9999999403953552,
				1,
				0.9999999403953552
			]
		},
		{
			"name":"shin.R",
			"rotation":[
				-2.9802322387695312e-08,
				2.7474023056583974e-08,
				2.9802320611338473e-08,
				1
			],
			"translation":[
				-5.635727995390027e-10,
				0.37734222412109375,
				-5.551115123125783e-16
			]
		},
		{
			"children":[
				9
			],
			"name":"thigh.R",
			"rotation":[
				-0.6582640409469604,
				0.2726617455482483,
				-0.648260772228241,
				0.26851826906204224
			],
			"scale":[
				0.9999999403953552,
				0.9999999403953552,
				1
			],
			"translation":[
				0,
				0.16009274125099182,
				0
			]
		},
		{
			"children":[
				10
			],
			"name":"hip.R",
			"rotation":[
				-0.2685182988643646,
				0.648260772228241,
				0.2726617753505707,
				0.6582640409469604
			],
			"scale":[
				0.9999999403953552,
				1,
				0.9999999403953552
			]
		},
		{
			"name":"spine.006",
			"rotation":[
				0,
				1.1920928955078125e-07,
				0,
				1
			],
			"translation":[
				0,
				0.07546842098236084,
				0
			]
		},
		{
			"children":[
				12
			],
			"name":"neck",
			"translation":[
				0,
				0.7924184799194336,
				0
			]
		},
		{
			"children":[
				2,
				5,
				8,
				11,
				13
			],
			"name":"spine",
			"translation":[
				0,
				0.754684329032898,
				0
			]
		},
		{
			"mesh":0,
			"name":"Body",
			"skin":0
		},
		{
			"children":[
				15,
				14
			],
			"name":"Armature",
			"translation":[
				0,
				-1,
				0
			]
		}
	],
	"animations":[
		{
			"channels":[
				{
					"sampler":0,
					"target":{
						"node":14,
						"path":"translation"
					}
				},
				{
					"sampler":1,
					"target":{
						"node":14,
						"path":"rotation"
					}
				},
				{
					"sampler":2,
					"target":{
						"node":14,
						"path":"scale"
					}
				},
				{
					"sampler":3,
					"target":{
						"node":2,
						"path":"translation"
					}
				},
				{
					"sampler":4,
					"target":{
						"node":2,
						"path":"rotation"
					}
				},
				{
					"sampler":5,
					"target":{
						"node":2,
						"path":"scale"
					}
				},
				{
					"sampler":6,
					"target":{
						"node":1,
						"path":"translation"
					}
				},
				{
					"sampler":7,
					"target":{
						"node":1,
						"path":"rotation"
					}
				},
				{
					"sampler":8,
					"target":{
						"node":1,
						"path":"scale"
					}
				},
				{
					"sampler":9,
					"target":{
						"node":0,
						"path":"translation"
					}
				},
				{
					"sampler":10,
					"target":{
						"node":0,
						"path":"rotation"
					}
				},
				{
					"sampler":11,
					"target":{
						"node":0,
						"path":"scale"
					}
				},
				{
					"sampler":12,
					"target":{
						"node":5,
						"path":"translation"
					}
				},
				{
					"sampler":13,
					"target":{
						"node":5,
						"path":"rotation"
					}
				},
				{
					"sampler":14,
					"target":{
						"node":5,
						"path":"scale"
					}
				},
				{
					"sampler":15,
					"target":{
						"node":4,
						"path":"translation"
					}
				},
				{
					"sampler":16,
					"target":{
						"node":4,
						"path":"rotation"
					}
				},
				{
					"sampler":17,
					"target":{
						"node":4,
						"path":"scale"
					}
				},
				{
					"sampler":18,
					"target":{
						"node":3,
						"path":"translation"
					}
				},
				{
					"sampler":19,
					"target":{
						"node":3,
						"path":"rotation"
					}
				},
				{
					"sampler":20,
					"target":{
						"node":3,
						"path":"scale"
					}
				},
				{
					"sampler":21,
					"target":{
						"node":8,
						"path":"translation"
					}
				},
				{
					"sampler":22,
					"target":{
						"node":8,
						"path":"rotation"
					}
				},
				{
					"sampler":23,
					"target":{
						"node":8,
						"path":"scale"
					}
				},
				{
					"sampler":24,
					"target":{
						"node":7,
						"path":"translation"
					}
				},
				{
					"sampler":25,
					"target":{
						"node":7,
						"path":"rotation"
					}
				},
				{
					"sampler":26,
					"target":{
						"node":7,
						"path":"scale"
					}
				},
				{
					"sampler":27,
					"target":{
						"node":6,
						"path":"translation"
					}
				},
				{
					"sampler":28,
					"target":{
						"node":6,
						"path":"rotation"
					}
				},
				{
					"sampler":29,
					"target":{
						"node":6,
						"path":"scale"
					}
				},
				{
					"sampler":30,
					"target":{
						"node":11,
						"path":"translation"
					}
				},
				{
					"sampler":31,
					"target":{
						"node":11,
						"path":"rotation"
					}
				},
				{
					"sampler":32,
					"target":{
						"node":11,
						"path":"scale"
					}
				},
				{
					"sampler":33,
					"target":{
						"node":10,
						"path":"translation"
					}
				},
				{
					"sampler":34,
					"target":{
						"node":10,
						"path":"rotation"
					}
				},
				{
					"sampler":35,
					"target":{
						"node":10,
						"path":"scale"
					}
				},
				{
					"sampler":36,
					"target":{
						"node":9,
						"path":"translation"
					}
				},
				{
					"sampler":37,
					"target":{
						"node":9,
						"path":"rotation"
					}
				},
				{
					"sampler":38,
					"target":{
						"node":9,
						"path":"scale"
					}
				},
				{
					"sampler":39,
					"target":{
						"node":13,
						"path":"translation"
					}
				},
				{
					"sampler":40,
					"target":{
						"node":13,
						"path":"rotation"
					}
				},
				{
					"sampler":41,
					"target":{
						"node":13,
						"path":"scale"
					}
				},
				{
					"sampler":42,
					"target":{
						"node":12,
						"path":"translation"
					}
				},
				{
					"sampler":43,
					"target":{
						"node":12,
						"path":"rotation"
					}
				},
				{
					"sampler":44,
					"target":{
						"node":12,
						"path":"scale"
					}
				}
			],
			"name":"Armature",
			"samplers":[
				{
					"input":7,
					"interpolation":"STEP",
					"output":8
				},
				{
					"input":7,
					"interpolation":"STEP",
					"output":9
				},
				{
					"input":7,
					"interpolation":"STEP",
					"output":10
				},
				{
					"input":7,
					"interpolation":"STEP",
					"output":11
				},
				{
					"input":7,
					"interpolation":"STEP",
					"output":12
				},
				{
					"input":7,
					"interpolation":"STEP",
					"output":13
				},
				{
					"input":7,
					"interpolation":"STEP",
					"output":14
				},
				{
					"input":7,
					"interpolation":"STEP",
					"output":15
				},
				{
					"input":7,
					"interpolation":"STEP",
					"output":16
				},
				{
					"input":7,
					"interpolation":"STEP",
					"output":17
				},
				{
					"input":7,
					"interpolation":"STEP",
					"output":18
				},
				{
					"input":7,
					"interpolation":"STEP",
					"output":19
				},
				{
					"input":7,
					"interpolation":"STEP",
					"output":20
				},
				{
					"input":7,
					"interpolation":"STEP",
					"output":21
				},
				{
					"input":7,
					"interpolation":"STEP",
					"output":22
				},
				{
					"input":7,
					"interpolation":"STEP",
					"output":23
				},
				{
					"input":7,
					"interpolation":"STEP",
					"output":24
				},
				{
					"input":7,
					"interpolation":"STEP",
					"output":25
				},
				{
					"input":7,
					"interpolation":"STEP",
					"output":26
				},
				{
					"input":7,
					"interpolation":"STEP",
					"output":27
				},
				{
					"input":7,
					"interpolation":"STEP",
					"output":28
				},
				{
					"input":7,
					"interpolation":"STEP",
					"output":29
				},
				{
					"input":7,
					"interpolation":"STEP",
					"output":30
				},
				{
					"input":7,
					"interpolation":"STEP",
					"output":31
				},
				{
					"input":7,
					"interpolation":"STEP",
					"output":32
				},
				{
					"input":7,
					"interpolation":"STEP",
					"output":33
				},
				{
					"input":7,
					"interpolation":"STEP",
					"output":34
				},
				{
					"input":7,
					"interpolation":"STEP",
					"output":35
				},
				{
					"input":7,
					"interpolation":"STEP",
					"output":36
				},
				{
					"input":7,
					"interpolation":"STEP",
					"output":37
				},
				{
					"input":7,
					"interpolation":"STEP",
					"output":38
				},
				{
					"input":7,
					"interpolation":"STEP",
					"output":39
				},
				{
					"input":7,
					"interpolation":"STEP",
					"output":40
				},
				{
					"input":7,
					"interpolation":"STEP",
					"output":41
				},
				{
					"input":7,
					"interpolation":"STEP",
					"output":42
				},
				{
					"input":7,
					"interpolation":"STEP",
					"output":43
				},
				{
					"input":7,
					"interpolation":"STEP",
					"output":44
				},
				{
					"input":7,
					"interpolation":"STEP",
					"output":45
				},
				{
					"input":7,
					"interpolation":"STEP",
					"output":46
				},
				{
					"input":7,
					"interpolation":"STEP",
					"output":47
				},
				{
					"input":7,
					"interpolation":"STEP",
					"output":48
				},
				{
					"input":7,
					"interpolation":"STEP",
					"output":49
				},
				{
					"input":7,
					"interpolation":"STEP",
					"output":50
				},
				{
					"input":7,
					"interpolation":"STEP",
					"output":51
				},
				{
					"input":7,
					"interpolation":"STEP",
					"output":52
				}
			]
		}
	],
	"materials":[
		{
			"doubleSided":true,
			"name":"StickMan",
			"pbrMetallicRoughness":{
				"baseColorTexture":{
					"index":0
				},
				"metallicFactor":0,
				"roughnessFactor":0.5
			}
		}
	],
	"meshes":[
		{
			"name":"Body",
			"primitives":[
				{
					"attributes":{
						"POSITION":0,
						"NORMAL":1,
						"TEXCOORD_0":2,
						"JOINTS_0":3,
						"WEIGHTS_0":4
					},
					"indices":5,
					"material":0
				}
			]
		}
	],
	"textures":[
		{
			"sampler":0,
			"source":0
		}
	],
	"images":[
		{
			"mimeType":"image/png",
			"name":"stickman.png",
			"uri":"stickman_png.png"
		}
	],
	"skins":[
		{
			"inverseBindMatrices":6,
			"joints":[
				14,
				2,
				1,
				0,
				5,
				4,
				3,
				8,
				7,
				6,
				11,
				10,
				9,
				13,
				12
			],
			"name":"Armature"
		}
	],
	"accessors":[
		{
			"bufferView":0,
			"componentType":5126,
			"count":8507,
			"max":[
				0.339607834815979,
				0.9999136924743652,
				0.18867015838623047
			],
			"min":[
				-0.339607834815979,
				-1,
				-0.18867290019989014
			],
			"type":"VEC3"
		},
		{
			"bufferView":1,
			"componentType":5126,
			"count":8507,
			"type":"VEC3"
		},
		{
			"bufferView":2,
			"componentType":5126,
			"count":8507,
			"type":"VEC2"
		},
		{
			"bufferView":3,
			"componentType":5121,
			"count":8507,
			"type":"VEC4"
		},
		{
			"bufferView":4,
			"componentType":5126,
			"count":8507,
			"type":"VEC4"
		},
		{
			"bufferView":5,
			"componentType":5123,
			"count":43884,
			"type":"SCALAR"
		},
		{
			"bufferView":6,
			"componentType":5126,
			"count":15,
			"type":"MAT4"
		},
		{
			"bufferView":7,
			"componentType":5126,
			"count":1,
			"max":[
				0.4166666666666667
			],
			"min":[
				0.4166666666666667
			],
			"type":"SCALAR"
		},
		{
			"bufferView":8,
			"componentType":5126,
			"count":1,
			"type":"VEC3"
		},
		{
			"bufferView":9,
			"componentType":5126,
			"count":1,
			"type":"VEC4"
		},
		{
			"bufferView":10,
			"componentType":5126,
			"count":1,
			"type":"VEC3"
		},
		{
			"bufferView":11,
			"componentType":5126,
			"count":1,
			"type":"VEC3"
		},
		{
			"bufferView":12,
			"componentType":5126,
			"count":1,
			"type":"VEC4"
		},
		{
			"bufferView":13,
			"componentType":5126,
			"count":1,
			"type":"VEC3"
		},
		{
			"bufferView":14,
			"componentType":5126,
			"count":1,
			"type":"VEC3"
		},
		{
			"bufferView":15,
			"componentType":5126,
			"count":1,
			"type":"VEC4"
		},
		{
			"bufferView":16,
			"componentType":5126,
			"count":1,
			"type":"VEC3"
		},
		{
			"bufferView":17,
			"componentType":5126,
			"count":1,
			"type":"VEC3"
		},
		{
			"bufferView":18,
			"componentType":5126,
			"count":1,
			"type":"VEC4"
		},
		{
			"bufferView":19,
			"componentType":5126,
			"count":1,
			"type":"VEC3"
		},
		{
			"bufferView":20,
			"componentType":5126,
			"count":1,
			"type":"VEC3"
		},
		{
			"bufferView":21,
			"componentType":5126,
			"count":1,
			"type":"VEC4"
		},
		{
			"bufferView":22,
			"componentType":5126,
			"count":1,
			"type":"VEC3"
		},
		{
			"bufferView":23,
			"componentType":5126,
			"count":1,
			"type":"VEC3"
		},
		{
			"bufferView":24,
			"componentType":5126,
			"count":1,
			"type":"VEC4"
		},
		{
			"bufferView":25,
			"componentType":5126,
			"count":1,
			"type":"VEC3"
		},
		{
			"bufferView":26,
			"componentType":5126,
			"count":1,
			"type":"VEC3"
		},
		{
			"bufferView":27,
			"componentType":5126,
			"count":1,
			"type":"VEC4"
		},
		{
			"bufferView":28,
			"componentType":5126,
			"count":1,
			"type":"VEC3"
		},
		{
			"bufferView":29,
			"componentType":5126,
			"count":1,
			"type":"VEC3"
		},
		{
			"bufferView":30,
			"componentType":5126,
			"count":1,
			"type":"VEC4"
		},
		{
			"bufferView":31,
			"componentType":5126,
			"count":1,
			"type":"VEC3"
		},
		{
			"bufferView":32,
			"componentType":5126,
			"count":1,
			"type":"VEC3"
		},
		{
			"bufferView":33,
			"componentType":5126,
			"count":1,
			"type":"VEC4"
		},
		{
			"bufferView":34,
			"componentType":5126,
			"count":1,
			"type":"VEC3"
		},
		{
			"bufferView":35,
			"componentType":5126,
			"count":1,
			"type":"VEC3"
		},
		{
			"bufferView":36,
			"componentType":5126,
			"count":1,
			"type":"VEC4"
		},
		{
			"bufferView":37,
			"componentType":5126,
			"count":1,
			"type":"VEC3"
		},
		{
			"bufferView":38,
			"componentType":5126,
			"count":1,
			"type":"VEC3"
		},
		{
			"bufferView":39,
			"componentType":5126,
			"count":1,
			"type":"VEC4"
		},
		{
			"bufferView":40,
			"componentType":5126,
			"count":1,
			"type":"VEC3"
		},
		{
			"bufferView":41,
			"componentType":5126,
			"count":1,
			"type":"VEC3"
		},
		{
			"bufferView":42,
			"componentType":5126,
			"count":1,
			"type":"VEC4"
		},
		{
			"bufferView":43,
			"componentType":5126,
			"count":1,
			"type":"VEC3"
		},
		{
			"bufferView":44,
			"componentType":5126,
			"count":1,
			"type":"VEC3"
		},
		{
			"bufferView":45,
			"componentType":5126,
			"count":1,
			"type":"VEC4"
		},
		{
			"bufferView":46,
			"componentType":5126,
			"count":1,
			"type":"VEC3"
		},
		{
			"bufferView":47,
			"componentType":5126,
			"count":1,
			"type":"VEC3"
		},
		{
			"bufferView":48,
			"componentType":5126,
			"count":1,
			"type":"VEC4"
		},
		{
			"bufferView":49,
			"componentType":5126,
			"count":1,
			"type":"VEC3"
		},
		{
			"bufferView":50,
			"componentType":5126,
			"count":1,
			"type":"VEC3"
		},
		{
			"bufferView":51,
			"componentType":5126,
			"count":1,
			"type":"VEC4"
		},
		{
			"bufferView":52,
			"componentType":5126,
			"count":1,
			"type":"VEC3"
		}
	],
	"bufferViews":[
		{
			"buffer":0,
			"byteLength":102084,
			"byteOffset":0,
			"target":34962
		},
		{
			"buffer":0,
			"byteLength":102084,
			"byteOffset":102084,
			"target":34962
		},
		{
			"buffer":0,
			"byteLength":68056,
			"byteOffset":204168,
			"target":34962
		},
		{
			"buffer":0,
			"byteLength":34028,
			"byteOffset":272224,
			"target":34962
		},
		{
			"buffer":0,
			"byteLength":136112,
			"byteOffset":306252,
			"target":34962
		},
		{
			"buffer":0,
			"byteLength":87768,
			"byteOffset":442364,
			"target":34963
		},
		{
			"buffer":0,
			"byteLength":960,
			"byteOffset":530132
		},
		{
			"buffer":0,
			"byteLength":4,
			"byteOffset":531092
		},
		{
			"buffer":0,
			"byteLength":12,
			"byteOffset":531096
		},
		{
			"buffer":0,
			"byteLength":16,
			"byteOffset":531108
		},
		{
			"buffer":0,
			"byteLength":12,
			"byteOffset":531124
		},
		{
			"buffer":0,
			"byteLength":12,
			"byteOffset":531136
		},
		{
			"buffer":0,
			"byteLength":16,
			"byteOffset":531148
		},
		{
			"buffer":0,
			"byteLength":12,
			"byteOffset":531164
		},
		{
			"buffer":0,
			"byteLength":12,
			"byteOffset":531176
		},
		{
			"buffer":0,
			"byteLength":16,
			"byteOffset":531188
		},
		{
			"buffer":0,
			"byteLength":12,
			"byteOffset":531204
		},
		{
			"buffer":0,
			"byteLength":12,
			"byteOffset":531216
		},
		{
			"buffer":0,
			"byteLength":16,
			"byteOffset":531228
		},
		{
			"buffer":0,
			"byteLength":12,
			"byteOffset":531244
		},
		{
			"buffer":0,
			"byteLength":12,
			"byteOffset":531256
		},
		{
			"buffer":0,
			"byteLength":16,
			"byteOffset":531268
		},
		{
			"buffer":0,
			"byteLength":12,
			"byteOffset":531284
		},
		{
			"buffer":0,
			"byteLength":12,
			"byteOffset":531296
		},
		{
			"buffer":0,
			"byteLength":16,
			"byteOffset":531308
		},
		{
			"buffer":0,
			"byteLength":12,
			"byteOffset":531324
		},
		{
			"buffer":0,
			"byteLength":12,
			"byteOffset":531336
		},
		{
			"buffer":0,
			"byteLength":16,
			"byteOffset":531348
		},
		{
			"buffer":0,
			"byteLength":12,
			"byteOffset":531364
		},
		{
			"buffer":0,
			"byteLength":12,
			"byteOffset":531376
		},
		{
			"buffer":0,
			"byteLength":16,
			"byteOffset":531388
		},
		{
			"buffer":0,
			"byteLength":12,
			"byteOffset":531404
		},
		{
			"buffer":0,
			"byteLength":12,
			"byteOffset":531416
		},
		{
			"buffer":0,
			"byteLength":16,
			"byteOffset":531428
		},
		{
			"buffer":0,
			"byteLength":12,
			"byteOffset":531444
		},
		{
			"buffer":0,
			"byteLength":12,
			"byteOffset":531456
		},
		{
			"buffer":0,
			"byteLength":16,
			"byteOffset":531468
		},
		{
			"buffer":0,
			"byteLength":12,
			"byteOffset":531484
		},
		{
			"buffer":0,
			"byteLength":12,
			"byteOffset":531496
		},
		{
			"buffer":0,
			"byteLength":16,
			"byteOffset":531508
		},
		{
			"buffer":0,
			"byteLength":12,
			"byteOffset":531524
		},
		{
			"buffer":0,
			"byteLength":12,
			"byteOffset":531536
		},
		{
			"buffer":0,
			"byteLength":16,
			"byteOffset":531548
		},
		{
			"buffer":0,
			"byteLength":12,
			"byteOffset":531564
		},
		{
			"buffer":0,
			"byteLength":12,
			"byteOffset":531576
		},
		{
			"buffer":0,
			"byteLength":16,
			"byteOffset":531588
		},
		{
			"buffer":0,
			"byteLength":12,
			"byteOffset":531604
		},
		{
			"buffer":0,
			"byteLength":12,
			"byteOffset":531616
		},
		{
			"buffer":0,
			"byteLength":16,
			"byteOffset":531628
		},
		{
			"buffer":0,
			"byteLength":12,
			"byteOffset":531644
		},
		{
			"buffer":0,
			"byteLength":12,
			"byteOffset":531656
		},
		{
			"buffer":0,
			"byteLength":16,
			"byteOffset":531668
		},
		{
			"buffer":0,
			"byteLength":12,
			"byteOffset":531684
		}
	],
	"samplers":[
		{
			"magFilter":9729,
			"minFilter":9987
		}
	],
	"buffers":[
		{
			"byteLength":531696,
			"uri":"JumpLoop.bin"
		}
	]
}
