# Blender 4.2.3 LTS
# www.blender.org
mtllib preliminary.mtl
o Cube
v -20.000000 0.500000 -0.500000
v -20.000000 -0.500000 -0.500000
v 20.000000 0.500000 -0.500000
v 20.000000 -0.500000 -0.500000
v -20.000000 0.500000 0.500000
v -20.000000 -0.500000 0.500000
v 20.000000 0.500000 0.500000
v 20.000000 -0.500000 0.500000
v 20.000000 -0.500000 -0.600000
v -20.000000 -0.500000 -0.600000
v 20.000000 0.500000 -0.600000
v -20.000000 0.500000 -0.600000
vn -0.0000 -0.0000 -1.0000
vn -0.0000 -1.0000 -0.0000
vn -0.0000 1.0000 -0.0000
vt 0.000000 0.875000
vt 1.000000 0.875000
vt 1.000000 1.000000
vt 0.000000 1.000000
vt -13.387221 0.042084
vt 14.387221 0.042084
vt 14.387221 0.736446
vt -13.387221 0.736446
s 0
usemtl Material.001
f 2/1/1 1/2/1 3/3/1 4/4/1
f 2/1/2 4/4/2 8/4/2 6/1/2
f 3/3/3 1/2/3 5/2/3 7/3/3
f 9/5/1 10/6/1 12/7/1 11/8/1
