# Blender 4.2.1 LTS
# www.blender.org
mtllib EnemyEyeNormal.mtl
o EnemyEyeNormal
v -0.000000 0.100000 -0.000000
v -0.000000 0.098078 0.019509
v -0.000000 0.092388 0.038268
v 0.000000 0.083147 0.055557
v -0.000000 0.070711 0.070711
v -0.000000 0.055557 0.083147
v -0.000000 0.038268 0.092388
v -0.000000 0.019509 0.098078
v -0.000000 0.000000 0.100000
v -0.000000 -0.019509 0.098078
v -0.000000 -0.038268 0.092388
v -0.000000 -0.055557 0.083147
v 0.000000 -0.070711 0.070711
v 0.000000 -0.083147 0.055557
v 0.000000 -0.092388 0.038268
v 0.000000 -0.098079 0.019509
v 0.000000 -0.100000 0.000000
v 0.000000 -0.098079 -0.019509
v 0.000000 -0.092388 -0.038268
v 0.000000 -0.083147 -0.055557
v 0.000000 -0.070711 -0.070711
v -0.000000 -0.055557 -0.083147
v -0.000000 -0.038268 -0.092388
v -0.000000 -0.019509 -0.098079
v 0.000000 0.000000 -0.100000
v -0.000000 0.019509 -0.098079
v -0.000000 0.038268 -0.092388
v -0.000000 0.055557 -0.083147
v -0.000000 0.070711 -0.070711
v 0.000000 0.083147 -0.055557
v -0.000000 0.092388 -0.038268
v -0.000000 0.098078 -0.019509
vn -1.0000 -0.0000 -0.0000
vt 0.501907 0.540747
s 0
usemtl EnemyFace
f 19/1/1 11/1/1 3/1/1
f 3/1/1 2/1/1 1/1/1
f 1/1/1 32/1/1 31/1/1
f 31/1/1 30/1/1 29/1/1
f 29/1/1 28/1/1 27/1/1
f 27/1/1 26/1/1 25/1/1
f 25/1/1 24/1/1 23/1/1
f 23/1/1 22/1/1 21/1/1
f 21/1/1 20/1/1 19/1/1
f 19/1/1 18/1/1 17/1/1
f 17/1/1 16/1/1 15/1/1
f 15/1/1 14/1/1 13/1/1
f 13/1/1 12/1/1 11/1/1
f 11/1/1 10/1/1 9/1/1
f 9/1/1 8/1/1 7/1/1
f 7/1/1 6/1/1 5/1/1
f 5/1/1 4/1/1 3/1/1
f 3/1/1 1/1/1 31/1/1
f 31/1/1 29/1/1 27/1/1
f 27/1/1 25/1/1 23/1/1
f 23/1/1 21/1/1 19/1/1
f 19/1/1 17/1/1 15/1/1
f 15/1/1 13/1/1 11/1/1
f 11/1/1 9/1/1 7/1/1
f 7/1/1 5/1/1 3/1/1
f 3/1/1 31/1/1 27/1/1
f 27/1/1 23/1/1 19/1/1
f 19/1/1 15/1/1 11/1/1
f 11/1/1 7/1/1 3/1/1
f 3/1/1 27/1/1 19/1/1
